<mxfile host="Electron" agent="Mozilla/5.0 (Windows NT 10.0; Win64; x64) AppleWebKit/537.36 (KHTML, like Gecko) draw.io/26.2.2 Chrome/134.0.6998.178 Electron/35.1.2 Safari/537.36" version="26.2.2">
  <diagram name="Page-1" id="-5XMm6-LIGXa4i5FkQe5">
    <mxGraphModel dx="1032" dy="668" grid="1" gridSize="10" guides="1" tooltips="1" connect="1" arrows="1" fold="1" page="1" pageScale="1" pageWidth="850" pageHeight="1100" math="0" shadow="0">
      <root>
        <mxCell id="0" />
        <mxCell id="1" parent="0" />
        <mxCell id="WayH3on5LpbWjKRJyvP6-1" value="&lt;span style=&quot;color: rgba(0, 0, 0, 0); font-family: monospace; font-size: 0px; text-align: start; text-wrap-mode: nowrap;&quot;&gt;%3CmxGraphModel%3E%3Croot%3E%3CmxCell%20id%3D%220%22%2F%3E%3CmxCell%20id%3D%221%22%20parent%3D%220%22%2F%3E%3CmxCell%20id%3D%222%22%20value%3D%22Genrate%20Invoice%22%20style%3D%22ellipse%3BwhiteSpace%3Dwrap%3Bhtml%3D1%3B%22%20vertex%3D%221%22%20parent%3D%221%22%3E%3CmxGeometry%20x%3D%22150%22%20y%3D%22420%22%20width%3D%22160%22%20height%3D%2250%22%20as%3D%22geometry%22%2F%3E%3C%2FmxCell%3E%3C%2Froot%3E%3C%2FmxGraphModel%3E&lt;/span&gt;" style="rounded=0;whiteSpace=wrap;html=1;" vertex="1" parent="1">
          <mxGeometry x="130" y="50" width="610" height="610" as="geometry" />
        </mxCell>
        <mxCell id="WayH3on5LpbWjKRJyvP6-2" style="edgeStyle=orthogonalEdgeStyle;rounded=0;orthogonalLoop=1;jettySize=auto;html=1;exitX=1;exitY=0.5;exitDx=0;exitDy=0;entryX=0;entryY=0.5;entryDx=0;entryDy=0;" edge="1" parent="1" source="WayH3on5LpbWjKRJyvP6-3" target="WayH3on5LpbWjKRJyvP6-14">
          <mxGeometry relative="1" as="geometry" />
        </mxCell>
        <mxCell id="WayH3on5LpbWjKRJyvP6-3" value="Staff" style="rounded=0;whiteSpace=wrap;html=1;" vertex="1" parent="1">
          <mxGeometry x="170" y="110" width="120" height="40" as="geometry" />
        </mxCell>
        <mxCell id="WayH3on5LpbWjKRJyvP6-5" value="Select Item" style="ellipse;whiteSpace=wrap;html=1;" vertex="1" parent="1">
          <mxGeometry x="160" y="220" width="120" height="50" as="geometry" />
        </mxCell>
        <mxCell id="WayH3on5LpbWjKRJyvP6-6" style="edgeStyle=orthogonalEdgeStyle;rounded=0;orthogonalLoop=1;jettySize=auto;html=1;exitX=0.5;exitY=1;exitDx=0;exitDy=0;entryX=0.583;entryY=0.047;entryDx=0;entryDy=0;entryPerimeter=0;" edge="1" parent="1" source="WayH3on5LpbWjKRJyvP6-3" target="WayH3on5LpbWjKRJyvP6-5">
          <mxGeometry relative="1" as="geometry" />
        </mxCell>
        <mxCell id="WayH3on5LpbWjKRJyvP6-9" value="Calculate Bill" style="ellipse;whiteSpace=wrap;html=1;" vertex="1" parent="1">
          <mxGeometry x="160" y="330" width="160" height="50" as="geometry" />
        </mxCell>
        <mxCell id="WayH3on5LpbWjKRJyvP6-11" value="" style="endArrow=classic;html=1;rounded=0;exitX=0.5;exitY=1;exitDx=0;exitDy=0;entryX=0.371;entryY=0.06;entryDx=0;entryDy=0;entryPerimeter=0;" edge="1" parent="1" source="WayH3on5LpbWjKRJyvP6-5" target="WayH3on5LpbWjKRJyvP6-9">
          <mxGeometry width="50" height="50" relative="1" as="geometry">
            <mxPoint x="240.61" y="340.00000000000006" as="sourcePoint" />
            <mxPoint x="220" y="410" as="targetPoint" />
          </mxGeometry>
        </mxCell>
        <mxCell id="WayH3on5LpbWjKRJyvP6-13" style="edgeStyle=orthogonalEdgeStyle;rounded=0;orthogonalLoop=1;jettySize=auto;html=1;exitX=0.5;exitY=1;exitDx=0;exitDy=0;entryX=0.5;entryY=0;entryDx=0;entryDy=0;" edge="1" parent="1" source="WayH3on5LpbWjKRJyvP6-14" target="WayH3on5LpbWjKRJyvP6-16">
          <mxGeometry relative="1" as="geometry" />
        </mxCell>
        <mxCell id="WayH3on5LpbWjKRJyvP6-14" value="Customer" style="rounded=0;whiteSpace=wrap;html=1;" vertex="1" parent="1">
          <mxGeometry x="365" y="110" width="120" height="40" as="geometry" />
        </mxCell>
        <mxCell id="WayH3on5LpbWjKRJyvP6-16" value="Place Oreder" style="ellipse;whiteSpace=wrap;html=1;" vertex="1" parent="1">
          <mxGeometry x="365" y="210" width="120" height="50" as="geometry" />
        </mxCell>
        <mxCell id="WayH3on5LpbWjKRJyvP6-18" style="edgeStyle=orthogonalEdgeStyle;rounded=0;orthogonalLoop=1;jettySize=auto;html=1;entryX=0.957;entryY=0.302;entryDx=0;entryDy=0;entryPerimeter=0;" edge="1" parent="1" source="WayH3on5LpbWjKRJyvP6-16" target="WayH3on5LpbWjKRJyvP6-5">
          <mxGeometry relative="1" as="geometry" />
        </mxCell>
        <mxCell id="WayH3on5LpbWjKRJyvP6-22" style="edgeStyle=orthogonalEdgeStyle;rounded=0;orthogonalLoop=1;jettySize=auto;html=1;entryX=0.5;entryY=0;entryDx=0;entryDy=0;" edge="1" parent="1" source="WayH3on5LpbWjKRJyvP6-19" target="WayH3on5LpbWjKRJyvP6-21">
          <mxGeometry relative="1" as="geometry" />
        </mxCell>
        <mxCell id="WayH3on5LpbWjKRJyvP6-28" style="edgeStyle=orthogonalEdgeStyle;rounded=0;orthogonalLoop=1;jettySize=auto;html=1;entryX=0.5;entryY=0;entryDx=0;entryDy=0;" edge="1" parent="1" source="WayH3on5LpbWjKRJyvP6-19" target="WayH3on5LpbWjKRJyvP6-24">
          <mxGeometry relative="1" as="geometry" />
        </mxCell>
        <mxCell id="WayH3on5LpbWjKRJyvP6-19" value="Genrate Invoice" style="ellipse;whiteSpace=wrap;html=1;" vertex="1" parent="1">
          <mxGeometry x="150" y="420" width="160" height="50" as="geometry" />
        </mxCell>
        <mxCell id="WayH3on5LpbWjKRJyvP6-20" style="edgeStyle=orthogonalEdgeStyle;rounded=0;orthogonalLoop=1;jettySize=auto;html=1;entryX=0.561;entryY=0.035;entryDx=0;entryDy=0;entryPerimeter=0;" edge="1" parent="1" source="WayH3on5LpbWjKRJyvP6-9" target="WayH3on5LpbWjKRJyvP6-19">
          <mxGeometry relative="1" as="geometry" />
        </mxCell>
        <mxCell id="WayH3on5LpbWjKRJyvP6-21" value="update Stock" style="ellipse;whiteSpace=wrap;html=1;" vertex="1" parent="1">
          <mxGeometry x="150" y="500" width="160" height="50" as="geometry" />
        </mxCell>
        <mxCell id="WayH3on5LpbWjKRJyvP6-24" value="Database" style="rounded=0;whiteSpace=wrap;html=1;" vertex="1" parent="1">
          <mxGeometry x="370" y="510" width="120" height="40" as="geometry" />
        </mxCell>
        <mxCell id="WayH3on5LpbWjKRJyvP6-25" value="" style="endArrow=classic;startArrow=classic;html=1;rounded=0;entryX=0;entryY=0.5;entryDx=0;entryDy=0;" edge="1" parent="1" target="WayH3on5LpbWjKRJyvP6-24">
          <mxGeometry width="50" height="50" relative="1" as="geometry">
            <mxPoint x="310" y="530" as="sourcePoint" />
            <mxPoint x="360" y="480" as="targetPoint" />
          </mxGeometry>
        </mxCell>
        <mxCell id="WayH3on5LpbWjKRJyvP6-26" value="Mark Attendance" style="ellipse;whiteSpace=wrap;html=1;" vertex="1" parent="1">
          <mxGeometry x="540" y="340" width="160" height="50" as="geometry" />
        </mxCell>
        <mxCell id="WayH3on5LpbWjKRJyvP6-32" style="edgeStyle=orthogonalEdgeStyle;rounded=0;orthogonalLoop=1;jettySize=auto;html=1;entryX=1;entryY=1;entryDx=0;entryDy=0;" edge="1" parent="1" source="WayH3on5LpbWjKRJyvP6-30" target="WayH3on5LpbWjKRJyvP6-5">
          <mxGeometry relative="1" as="geometry">
            <Array as="points">
              <mxPoint x="330" y="290" />
              <mxPoint x="330" y="262" />
            </Array>
          </mxGeometry>
        </mxCell>
        <mxCell id="WayH3on5LpbWjKRJyvP6-33" style="edgeStyle=orthogonalEdgeStyle;rounded=0;orthogonalLoop=1;jettySize=auto;html=1;entryX=0.5;entryY=0;entryDx=0;entryDy=0;" edge="1" parent="1" source="WayH3on5LpbWjKRJyvP6-30" target="WayH3on5LpbWjKRJyvP6-26">
          <mxGeometry relative="1" as="geometry" />
        </mxCell>
        <mxCell id="WayH3on5LpbWjKRJyvP6-30" value="Admin" style="rounded=0;whiteSpace=wrap;html=1;" vertex="1" parent="1">
          <mxGeometry x="560" y="270" width="120" height="40" as="geometry" />
        </mxCell>
        <mxCell id="WayH3on5LpbWjKRJyvP6-41" style="edgeStyle=orthogonalEdgeStyle;rounded=0;orthogonalLoop=1;jettySize=auto;html=1;entryX=0.5;entryY=0;entryDx=0;entryDy=0;" edge="1" parent="1" source="WayH3on5LpbWjKRJyvP6-34" target="WayH3on5LpbWjKRJyvP6-39">
          <mxGeometry relative="1" as="geometry" />
        </mxCell>
        <mxCell id="WayH3on5LpbWjKRJyvP6-34" value="Mark Attendance" style="ellipse;whiteSpace=wrap;html=1;" vertex="1" parent="1">
          <mxGeometry x="550" y="420" width="160" height="50" as="geometry" />
        </mxCell>
        <mxCell id="WayH3on5LpbWjKRJyvP6-36" style="edgeStyle=orthogonalEdgeStyle;rounded=0;orthogonalLoop=1;jettySize=auto;html=1;entryX=0.439;entryY=0.074;entryDx=0;entryDy=0;entryPerimeter=0;" edge="1" parent="1" source="WayH3on5LpbWjKRJyvP6-26" target="WayH3on5LpbWjKRJyvP6-34">
          <mxGeometry relative="1" as="geometry" />
        </mxCell>
        <mxCell id="WayH3on5LpbWjKRJyvP6-39" value="Veiw Report" style="ellipse;whiteSpace=wrap;html=1;" vertex="1" parent="1">
          <mxGeometry x="550" y="500" width="160" height="50" as="geometry" />
        </mxCell>
        <mxCell id="WayH3on5LpbWjKRJyvP6-42" value="" style="endArrow=classic;startArrow=classic;html=1;rounded=0;exitX=1;exitY=0.5;exitDx=0;exitDy=0;entryX=0.026;entryY=0.639;entryDx=0;entryDy=0;entryPerimeter=0;" edge="1" parent="1" source="WayH3on5LpbWjKRJyvP6-24" target="WayH3on5LpbWjKRJyvP6-39">
          <mxGeometry width="50" height="50" relative="1" as="geometry">
            <mxPoint x="500" y="580" as="sourcePoint" />
            <mxPoint x="550" y="530" as="targetPoint" />
          </mxGeometry>
        </mxCell>
        <mxCell id="WayH3on5LpbWjKRJyvP6-43" value="&lt;b&gt;&lt;font style=&quot;font-size: 18px;&quot;&gt;SECONND LEVEL DFD DIAGRAM&lt;/font&gt;&lt;/b&gt;" style="rounded=0;whiteSpace=wrap;html=1;" vertex="1" parent="1">
          <mxGeometry x="150" y="600" width="570" height="40" as="geometry" />
        </mxCell>
      </root>
    </mxGraphModel>
  </diagram>
</mxfile>
